<svg width="9" height="17" viewBox="0 0 9 17" fill="none" xmlns="http://www.w3.org/2000/svg">
<path d="M0.170996 7.83894L7.108 0.187995C7.16203 0.128303 7.22618 0.0809673 7.29676 0.0486902C7.36734 0.0164131 7.44297 -0.0001733 7.51935 -0.000121951C7.59573 -7.06031e-05 7.67134 0.0166175 7.74189 0.0489894C7.81243 0.0813614 7.87652 0.128783 7.9305 0.188548C7.98447 0.248312 8.02727 0.319248 8.05645 0.397306C8.08564 0.475364 8.10064 0.559015 8.10059 0.643483C8.10054 0.727951 8.08545 0.811582 8.05618 0.889601C8.02691 0.96762 7.98403 1.0385 7.93 1.09819L1.4 8.29459L7.93 15.4899C7.98403 15.5495 8.02693 15.6203 8.05622 15.6983C8.08552 15.7762 8.10064 15.8598 8.10074 15.9442C8.10083 16.0286 8.08589 16.1122 8.05676 16.1903C8.02764 16.2683 7.9849 16.3392 7.931 16.399C7.87709 16.4587 7.81306 16.5062 7.74258 16.5386C7.6721 16.571 7.59653 16.5877 7.5202 16.5878C7.44387 16.5879 7.36827 16.5714 7.29772 16.5392C7.22716 16.507 7.16303 16.4597 7.109 16.4001L0.170996 8.74914C0.116843 8.68944 0.0738773 8.61852 0.0445605 8.54042C0.0152436 8.46233 0.000152588 8.3786 0.000152588 8.29404C0.000152588 8.20948 0.0152436 8.12576 0.0445605 8.04766C0.0738773 7.96956 0.116843 7.89864 0.170996 7.83894Z" fill="black"/>
</svg>
