<svg width="21" height="20" viewBox="0 0 21 20" fill="none" xmlns="http://www.w3.org/2000/svg">
<path d="M5.3079 7.19214H1.3689V19.9161H5.3079V7.19214Z" fill="white"/>
<path d="M3.31999 5.52515C3.78517 5.52891 4.24098 5.39441 4.6296 5.13871C5.01822 4.883 5.32212 4.51763 5.50276 4.08893C5.68339 3.66024 5.7326 3.18755 5.64416 2.73084C5.55572 2.27413 5.33361 1.85398 5.00601 1.5237C4.6784 1.19342 4.26007 0.967899 3.80409 0.87575C3.34812 0.783602 2.87504 0.828979 2.44489 1.00612C2.01474 1.18326 1.64691 1.48419 1.38806 1.87072C1.1292 2.25724 0.990999 2.71195 0.990984 3.17714C0.988592 3.79731 1.2326 4.39305 1.66934 4.83336C2.10609 5.27367 2.69982 5.5225 3.31999 5.52515Z" fill="white"/>
<path d="M11.6039 13.2362C11.6039 11.4482 12.4269 10.3822 14.0039 10.3822C15.4519 10.3822 16.1479 11.4052 16.1479 13.2362V19.9152H20.0679V11.8592C20.0679 8.45118 18.1359 6.80318 15.4379 6.80318C14.6719 6.79227 13.9161 6.97998 13.2442 7.348C12.5723 7.71602 12.0072 8.25181 11.6039 8.90318V7.19018H7.82593V19.9132H11.6039V13.2362Z" fill="white"/>
</svg>
