<svg width="28" height="22" viewBox="0 0 28 22" fill="none" xmlns="http://www.w3.org/2000/svg">
<path d="M24.75 0.00012207H2.75C2.02276 0.00276968 1.32626 0.293797 0.813333 0.80935C0.300405 1.3249 0.0129358 2.02287 0.0139999 2.75012L0 19.2501C0.00211065 19.9788 0.29252 20.6771 0.807788 21.1923C1.32306 21.7076 2.0213 21.998 2.75 22.0001H24.75C25.4787 21.998 26.1769 21.7076 26.6922 21.1923C27.2075 20.6771 27.4979 19.9788 27.5 19.2501V2.75012C27.4979 2.02143 27.2075 1.32318 26.6922 0.80791C26.1769 0.292642 25.4787 0.00223272 24.75 0.00012207ZM24.75 19.2501H2.75V5.50012L13.75 12.3751L24.75 5.50012V19.2501ZM13.75 9.62512L2.75 2.75012H24.75L13.75 9.62512Z" fill="#231F20"/>
</svg>
