<svg width="22" height="17" viewBox="0 0 22 17" fill="none" xmlns="http://www.w3.org/2000/svg">
<path d="M0.89209 14.8771C2.71526 16.0477 4.82571 16.6934 6.99175 16.7431C9.1578 16.7929 11.2957 16.2449 13.1707 15.1593C15.0457 14.0737 16.5853 12.4924 17.6206 10.5891C18.6558 8.68582 19.1466 6.53408 19.0391 4.37013C19.8516 3.78113 20.5523 3.05167 21.1081 2.21614C20.3515 2.55276 19.5485 2.77357 18.7261 2.87114C19.5928 2.35112 20.2407 1.53364 20.5491 0.571137C19.7354 1.05543 18.8449 1.39701 17.9161 1.58113C17.2903 0.9127 16.4611 0.469947 15.5575 0.321793C14.6539 0.173639 13.7267 0.328401 12.9202 0.761994C12.1137 1.19559 11.4732 1.88368 11.0984 2.71912C10.7237 3.55456 10.6357 4.49047 10.8481 5.38113C9.19766 5.29795 7.5833 4.86783 6.11027 4.11882C4.63724 3.36981 3.33862 2.31874 2.29909 1.03413C1.7685 1.95011 1.60585 3.0335 1.84406 4.0649C2.08228 5.09629 2.70356 5.99862 3.58209 6.58914C2.92312 6.56813 2.27879 6.38948 1.70309 6.06815C1.69036 7.03648 2.01562 7.97895 2.62287 8.73332C3.23013 9.48769 4.08138 10.0068 5.03009 10.2011C4.41964 10.3672 3.77924 10.3911 3.15809 10.2711C3.42124 11.097 3.93633 11.8198 4.6311 12.3381C5.32587 12.8564 6.16546 13.1442 7.03209 13.1611C6.17166 13.8367 5.18649 14.336 4.13293 14.6304C3.07936 14.9249 1.97809 15.0087 0.89209 14.8771Z" fill="white"/>
</svg>
