<svg width="16" height="9" viewBox="0 0 16 9" fill="none" xmlns="http://www.w3.org/2000/svg">
<path d="M8.15225 7.92974L15.0702 0.991742C15.1791 0.882606 15.2402 0.73469 15.24 0.580535C15.2398 0.42638 15.1784 0.278614 15.0692 0.169742C14.9601 0.0608708 14.8122 -0.000187106 14.658 4.30732e-07C14.5039 0.000187967 14.3561 0.0616056 14.2472 0.170742L7.74025 6.69974L1.23325 0.170742C1.17934 0.116703 1.11532 0.0738114 1.04483 0.0445154C0.974348 0.0152195 0.898785 9.32893e-05 0.822454 4.30732e-07C0.746124 -9.24279e-05 0.670525 0.0148499 0.59997 0.0439742C0.529415 0.0730986 0.465286 0.115835 0.411247 0.169742C0.357208 0.22365 0.314317 0.287673 0.285021 0.358157C0.255725 0.428641 0.240599 0.504205 0.240506 0.580535C0.240414 0.656865 0.255356 0.732466 0.28448 0.803021C0.313604 0.873576 0.35634 0.937703 0.410248 0.991742L7.32825 7.92974C7.38222 7.98389 7.44636 8.02686 7.51697 8.05618C7.58758 8.08549 7.66329 8.10059 7.73975 8.10059C7.81621 8.10059 7.89191 8.08549 7.96253 8.05618C8.03314 8.02686 8.09727 7.98389 8.15125 7.92974H8.15225Z" fill="black"/>
</svg>
