<svg width="22" height="21" viewBox="0 0 22 21" fill="none" xmlns="http://www.w3.org/2000/svg">
<path d="M10.9999 1.95012C13.7859 1.95012 14.1159 1.96112 15.2169 2.01112C15.8784 2.01941 16.5336 2.14116 17.1539 2.37111C17.604 2.54435 18.0128 2.81009 18.3539 3.15114C18.6949 3.49219 18.9607 3.90099 19.1339 4.35112C19.3639 4.97143 19.4856 5.62661 19.4939 6.28812C19.5439 7.38812 19.5549 7.71911 19.5549 10.5051C19.5549 13.2911 19.5439 13.6211 19.4939 14.7211C19.4857 15.383 19.364 16.0385 19.1339 16.6591C18.9607 17.1093 18.6949 17.518 18.3539 17.8591C18.0128 18.2002 17.604 18.4659 17.1539 18.6391C16.5336 18.8691 15.8784 18.9905 15.2169 18.9981C14.1169 19.0481 13.7869 19.0591 10.9999 19.0591C8.21292 19.0591 7.88392 19.0481 6.78392 18.9981C6.12144 18.9907 5.46517 18.8693 4.84392 18.6391C4.39401 18.4655 3.98541 18.1996 3.64441 17.8586C3.30341 17.5176 3.03754 17.109 2.86392 16.6591C2.63386 16.0385 2.51241 15.3829 2.50491 14.7211C2.45491 13.6211 2.44392 13.2911 2.44392 10.5051C2.44392 7.71911 2.45491 7.38912 2.50491 6.28812C2.5125 5.62663 2.63395 4.97139 2.86392 4.35112C3.03731 3.90084 3.30306 3.49184 3.64407 3.15048C3.98509 2.80912 4.39381 2.54295 4.84392 2.36911C5.46459 2.1392 6.12009 2.01744 6.78192 2.00911C7.88192 1.95911 8.21192 1.94812 10.9979 1.94812M10.9979 0.0681152C8.16392 0.0681152 7.80892 0.0811188 6.69792 0.131119C5.83227 0.148695 4.97583 0.312679 4.16492 0.616119C3.47188 0.884341 2.84251 1.29436 2.31712 1.81992C1.79174 2.34548 1.38192 2.97499 1.11392 3.66812C0.809884 4.47887 0.645881 5.33539 0.628922 6.20111C0.577922 7.31411 0.565918 7.66911 0.565918 10.5011C0.565918 13.3331 0.577922 13.6901 0.628922 14.8011C0.645881 15.6668 0.809884 16.5234 1.11392 17.3341C1.38192 18.0272 1.79174 18.6568 2.31712 19.1823C2.84251 19.7079 3.47188 20.1179 4.16492 20.3861C4.97598 20.689 5.83233 20.853 6.69792 20.8711C7.81092 20.9211 8.16593 20.9331 10.9979 20.9331C13.8299 20.9331 14.1869 20.9211 15.2979 20.8711C16.1635 20.8531 17.0199 20.6892 17.8309 20.3861C18.524 20.1178 19.1534 19.7077 19.6789 19.1821C20.2045 18.6566 20.6145 18.0272 20.8829 17.3341C21.1865 16.5232 21.3505 15.6668 21.3679 14.8011C21.4189 13.6881 21.4309 13.3331 21.4309 10.5011C21.4309 7.66911 21.4189 7.31211 21.3679 6.20111C21.3505 5.33545 21.1865 4.47901 20.8829 3.66812C20.6145 2.97505 20.2045 2.34562 19.6789 1.82008C19.1534 1.29455 18.524 0.884493 17.8309 0.616119C17.02 0.312567 16.1636 0.14858 15.2979 0.131119C14.1849 0.0811188 13.8299 0.0681152 10.9979 0.0681152Z" fill="white"/>
<path d="M10.9999 5.14709C9.94014 5.14709 8.90422 5.46133 8.02311 6.05008C7.14199 6.63882 6.45524 7.47563 6.0497 8.45468C5.64417 9.43373 5.53806 10.511 5.7448 11.5504C5.95154 12.5898 6.46184 13.5444 7.21117 14.2938C7.9605 15.0431 8.9152 15.5534 9.95455 15.7601C10.9939 15.9669 12.0712 15.8608 13.0503 15.4552C14.0293 15.0497 14.8661 14.363 15.4549 13.4818C16.0436 12.6007 16.3579 11.5648 16.3579 10.5051C16.3579 9.80147 16.2192 9.10474 15.95 8.45468C15.6807 7.80462 15.2861 7.21395 14.7885 6.71642C14.291 6.21888 13.7003 5.82421 13.0503 5.55495C12.4002 5.28568 11.7035 5.14709 10.9999 5.14709ZM10.9999 13.9831C10.312 13.9831 9.63952 13.7791 9.06757 13.397C8.49562 13.0148 8.04984 12.4716 7.78659 11.8361C7.52335 11.2006 7.45447 10.5012 7.58867 9.82658C7.72287 9.15192 8.05412 8.53218 8.54053 8.04578C9.02694 7.55937 9.64666 7.22813 10.3213 7.09393C10.996 6.95973 11.6953 7.02861 12.3308 7.29185C12.9663 7.5551 13.5095 8.00088 13.8917 8.57283C14.2739 9.14478 14.4778 9.81721 14.4778 10.5051C14.4778 10.9618 14.3879 11.4141 14.2131 11.8361C14.0383 12.258 13.7821 12.6415 13.4592 12.9644C13.1362 13.2874 12.7528 13.5436 12.3308 13.7184C11.9088 13.8931 11.4566 13.9831 10.9999 13.9831Z" fill="white"/>
<path d="M17.8219 4.9351C17.8219 5.18273 17.7484 5.42479 17.6109 5.63068C17.4733 5.83657 17.2778 5.99704 17.049 6.0918C16.8202 6.18656 16.5685 6.21135 16.3256 6.16304C16.0828 6.11473 15.8597 5.9955 15.6846 5.8204C15.5095 5.64531 15.3902 5.42222 15.3419 5.17935C15.2936 4.93649 15.3184 4.68475 15.4132 4.45598C15.5079 4.22721 15.6684 4.03168 15.8743 3.8941C16.0802 3.75653 16.3222 3.68311 16.5699 3.68311C16.9019 3.68311 17.2204 3.81501 17.4552 4.0498C17.69 4.2846 17.8219 4.60305 17.8219 4.9351Z" fill="white"/>
</svg>
