<svg width="23" height="23" viewBox="0 0 23 23" fill="none" xmlns="http://www.w3.org/2000/svg">
<path d="M16.845 0.937012H16.785C15.7448 0.94224 14.7224 1.20666 13.8101 1.70637C12.8978 2.20608 12.1245 2.9253 11.56 3.79901C10.9955 2.9253 10.2222 2.20608 9.30991 1.70637C8.39762 1.20666 7.37516 0.94224 6.335 0.937012H6.27999C4.64147 0.952296 3.07521 1.61373 1.92171 2.77754C0.768205 3.94134 0.120714 5.51342 0.119995 7.15201C0.255768 9.79039 1.1691 12.3296 2.745 14.45C5.29174 17.6578 8.25485 20.5116 11.556 22.936C14.8571 20.5116 17.8203 17.6578 20.367 14.45C21.9447 12.3295 22.8594 9.78951 22.996 7.15001C22.9948 5.5133 22.3483 3.94308 21.1968 2.77996C20.0453 1.61685 18.4816 0.954647 16.845 0.937012ZM19.133 13.543C16.9331 16.3377 14.3885 18.8429 11.56 20.999C8.73315 18.8396 6.19036 16.3317 3.992 13.535C2.60858 11.6797 1.79798 9.46023 1.66 7.15001C1.65969 5.91829 2.14633 4.73638 3.01382 3.86196C3.88131 2.98754 5.0593 2.49151 6.29099 2.48201H6.345C7.13717 2.4825 7.91587 2.68708 8.606 3.07601C9.28164 3.45617 9.85529 3.99414 10.278 4.64401C10.4185 4.85859 10.6103 5.0348 10.8359 5.15675C11.0615 5.27871 11.314 5.34257 11.5705 5.34257C11.827 5.34257 12.0794 5.27871 12.3051 5.15675C12.5307 5.0348 12.7225 4.85859 12.863 4.64401C13.2872 3.99536 13.8605 3.4577 14.535 3.07601C15.2248 2.68724 16.0032 2.48267 16.795 2.48201H16.845C18.0769 2.49151 19.255 2.98768 20.1225 3.86232C20.99 4.73695 21.4766 5.91911 21.476 7.15101C21.3259 9.46318 20.5105 11.6826 19.128 13.542L19.133 13.543Z" fill="#231F20"/>
</svg>
