<svg width="14" height="22" viewBox="0 0 14 22" fill="none" xmlns="http://www.w3.org/2000/svg">
<path d="M9.383 10.9L1.441 2.96398C1.30193 2.82445 1.1917 2.65889 1.11661 2.47676C1.04153 2.29463 1.00305 2.0995 1.00337 1.9025C1.0037 1.7055 1.04282 1.51049 1.11851 1.32861C1.1942 1.14674 1.30497 0.981545 1.4445 0.842475C1.58403 0.703405 1.74958 0.59318 1.93171 0.518091C2.11384 0.443003 2.30897 0.404523 2.50597 0.404848C2.70297 0.405173 2.89798 0.444297 3.07986 0.519985C3.26174 0.595674 3.42693 0.706446 3.566 0.845975L12.566 9.83797C12.8374 10.1112 12.9933 10.4782 13.0015 10.8632C13.0097 11.2481 12.8695 11.6215 12.61 11.906L3.574 20.96C3.43583 21.1034 3.27047 21.2179 3.08758 21.2968C2.90469 21.3756 2.70792 21.4173 2.50876 21.4193C2.30961 21.4213 2.11204 21.3836 1.9276 21.3085C1.74315 21.2333 1.57553 21.1222 1.43449 20.9815C1.29346 20.8409 1.18185 20.6736 1.10617 20.4894C1.03048 20.3051 0.992249 20.1077 0.993692 19.9085C0.995135 19.7093 1.03623 19.5125 1.11457 19.3293C1.19291 19.1462 1.30694 18.9806 1.45 18.842L9.383 10.9Z" fill="#4A4B4D"/>
</svg>
