<svg width="14" height="22" viewBox="0 0 14 22" fill="none" xmlns="http://www.w3.org/2000/svg">
<path d="M4.61685 10.9L12.5588 2.96398C12.8397 2.68218 12.9971 2.30036 12.9965 1.9025C12.9958 1.50464 12.8371 1.12334 12.5553 0.842475C12.2736 0.561611 11.8917 0.404192 11.4939 0.404848C11.096 0.405505 10.7147 0.564183 10.4338 0.845975L1.43385 9.83797C1.16249 10.1112 1.00658 10.4782 0.998387 10.8632C0.990196 11.2481 1.13036 11.6215 1.38985 11.906L10.4258 20.96C10.5635 21.1058 10.7289 21.2225 10.9124 21.3033C11.0959 21.3841 11.2937 21.4273 11.4942 21.4303C11.6946 21.4333 11.8937 21.3961 12.0795 21.3209C12.2654 21.2457 12.4343 21.134 12.5762 20.9924C12.7181 20.8508 12.8302 20.6822 12.9059 20.4965C12.9815 20.3108 13.0192 20.1119 13.0167 19.9114C13.0141 19.7109 12.9714 19.513 12.891 19.3293C12.8107 19.1456 12.6943 18.9799 12.5488 18.842L4.61685 10.9Z" fill="#4A4B4D"/>
</svg>
