<svg width="13" height="7" viewBox="0 0 13 7" fill="none" xmlns="http://www.w3.org/2000/svg">
<path d="M6.56912 6.34402L12.1041 0.794021C12.1886 0.706234 12.2353 0.588779 12.2341 0.466926C12.2329 0.345073 12.1839 0.228562 12.0977 0.14246C12.0115 0.0563589 11.8949 0.00754855 11.773 0.00653127C11.6512 0.00551399 11.5338 0.0523711 11.4461 0.137021L6.24012 5.35702L1.03412 0.137021C0.990976 0.0937504 0.939737 0.0594004 0.883323 0.0359323C0.826908 0.0124642 0.766424 0.000337537 0.705323 0.000244678C0.644222 0.000151819 0.583701 0.0120946 0.527216 0.0353911C0.470731 0.0586877 0.419386 0.0928817 0.376116 0.136021C0.332846 0.17916 0.298495 0.2304 0.275027 0.286814C0.251559 0.343229 0.239432 0.403713 0.23934 0.464814C0.239152 0.588213 0.287992 0.706632 0.375116 0.794021L5.91012 6.34402C5.95332 6.38741 6.00467 6.42184 6.06121 6.44533C6.11776 6.46882 6.17839 6.48091 6.23962 6.48091C6.30085 6.48091 6.36147 6.46882 6.41802 6.44533C6.47456 6.42184 6.52591 6.38741 6.56912 6.34402Z" fill="black"/>
</svg>
