<svg width="20" height="23" viewBox="0 0 20 23" fill="none" xmlns="http://www.w3.org/2000/svg">
<path d="M19.9961 21.3399L18.3241 5.41695C18.3071 5.25614 18.2312 5.10732 18.111 4.99913C17.9908 4.89094 17.8348 4.83104 17.6731 4.83095H14.5301V4.11395C14.5066 3.05541 14.0696 2.04814 13.3126 1.30782C12.5556 0.567493 11.5389 0.152954 10.4801 0.152954C9.4213 0.152954 8.40458 0.567493 7.64762 1.30782C6.89066 2.04814 6.45363 3.05541 6.43011 4.11395V4.83095H3.28511C3.1234 4.83104 2.96744 4.89094 2.84725 4.99913C2.72706 5.10732 2.65114 5.25614 2.63411 5.41695L0.959106 21.3399C0.949558 21.4314 0.959379 21.5239 0.987929 21.6113C1.01648 21.6987 1.06312 21.7791 1.12481 21.8473C1.18651 21.9156 1.26187 21.97 1.346 22.0071C1.43013 22.0443 1.52114 22.0633 1.61311 22.0629H19.3451C19.4368 22.0629 19.5275 22.0436 19.6113 22.0062C19.695 21.9689 19.77 21.9144 19.8314 21.8462C19.8928 21.7781 19.9391 21.6978 19.9675 21.6106C19.9959 21.5234 20.0056 21.4312 19.9961 21.3399ZM7.73811 4.11395C7.73811 3.38686 8.02694 2.68955 8.54107 2.17542C9.0552 1.66128 9.75252 1.37245 10.4796 1.37245C11.2067 1.37245 11.904 1.66128 12.4181 2.17542C12.9323 2.68955 13.2211 3.38686 13.2211 4.11395V4.83095H7.73811V4.11395ZM2.33811 20.7539L3.87511 6.13995H6.42811V7.58295C6.42811 7.75667 6.49712 7.92327 6.61995 8.0461C6.74279 8.16894 6.90939 8.23795 7.08311 8.23795C7.25682 8.23795 7.42343 8.16894 7.54626 8.0461C7.6691 7.92327 7.73811 7.75667 7.73811 7.58295V6.13995H13.2211V7.58295C13.2211 7.75667 13.2901 7.92327 13.413 8.0461C13.5358 8.16894 13.7024 8.23795 13.8761 8.23795C14.0498 8.23795 14.2164 8.16894 14.3393 8.0461C14.4621 7.92327 14.5311 7.75667 14.5311 7.58295V6.13995H17.0841L18.6191 20.7539H2.33811Z" fill="#222222"/>
</svg>
